<svg xmlns="http://www.w3.org/2000/svg" width="1024" height="1024" viewBox="0 0 1024 1024">
  <defs>
    <linearGradient id="bg" x1="12%" y1="8%" x2="88%" y2="92%">
      <stop offset="0%" stop-color="#0ea5e9"/>
      <stop offset="48%" stop-color="#4f46e5"/>
      <stop offset="100%" stop-color="#7c3aed"/>
    </linearGradient>
    <linearGradient id="foam" x1="18%" y1="20%" x2="82%" y2="80%">
      <stop offset="0%" stop-color="#ffffff"/>
      <stop offset="100%" stop-color="#dbeafe"/>
    </linearGradient>
  </defs>
  <rect width="1024" height="1024" rx="220" fill="url(#bg)"/>
  <circle cx="770" cy="244" r="70" fill="#ffffff" opacity="0.18"/>
  <path d="M220 602c76-88 154-130 236-126 72 4 118 48 180 52 64 4 126-28 188-96" fill="none" stroke="#ffffff" stroke-width="76" stroke-linecap="round" opacity="0.96"/>
  <path d="M218 704c76-58 154-84 234-78 72 6 120 42 182 46 66 4 126-18 190-62" fill="none" stroke="#bfdbfe" stroke-width="54" stroke-linecap="round" opacity="0.85"/>
  <path d="M512 214c132 0 240 104 240 232 0 138-116 250-258 250h-84" fill="none" stroke="url(#foam)" stroke-width="68" stroke-linecap="round"/>
  <path d="M412 320l-152 142 152 142" fill="none" stroke="#ffffff" stroke-width="68" stroke-linecap="round" stroke-linejoin="round"/>
  <circle cx="512" cy="446" r="64" fill="#ffffff" opacity="0.9"/>
</svg>
