<svg xmlns="http://www.w3.org/2000/svg" viewBox="0 0 1024 1024" role="img" aria-label="Multi platform video downloader">
  <defs>
    <linearGradient id="bg" x1="140" x2="884" y1="120" y2="904" gradientUnits="userSpaceOnUse">
      <stop offset="0" stop-color="#0ea5e9"/>
      <stop offset="0.48" stop-color="#6366f1"/>
      <stop offset="1" stop-color="#ec4899"/>
    </linearGradient>
    <linearGradient id="arrow" x1="512" x2="512" y1="260" y2="720" gradientUnits="userSpaceOnUse">
      <stop offset="0" stop-color="#ffffff"/>
      <stop offset="1" stop-color="#e0f2fe"/>
    </linearGradient>
    <filter id="shadow" x="-20%" y="-20%" width="140%" height="140%">
      <feDropShadow dx="0" dy="28" stdDeviation="28" flood-color="#0f172a" flood-opacity="0.22"/>
    </filter>
  </defs>
  <rect width="1024" height="1024" rx="228" fill="#0f172a"/>
  <circle cx="252" cy="280" r="72" fill="#ff0050" opacity="0.95"/>
  <circle cx="772" cy="280" r="72" fill="#ff0000" opacity="0.95"/>
  <circle cx="220" cy="740" r="72" fill="#07c160" opacity="0.95"/>
  <circle cx="804" cy="740" r="72" fill="#00a1d6" opacity="0.95"/>
  <circle cx="512" cy="512" r="336" fill="url(#bg)" filter="url(#shadow)"/>
  <path fill="#ffffff" fill-opacity="0.24" d="M350 310c0-34 37-55 66-37l267 165c27 17 27 56 0 73L416 676c-29 18-66-3-66-37V310z"/>
  <path fill="url(#arrow)" d="M472 302c0-22 18-40 40-40s40 18 40 40v250l72-72c16-16 41-16 57 0s16 41 0 57L540 678c-16 16-41 16-57 0L342 537c-16-16-16-41 0-57s41-16 57 0l73 72V302z"/>
  <rect x="326" y="718" width="372" height="78" rx="39" fill="#ffffff" fill-opacity="0.92"/>
</svg>
