<svg xmlns="http://www.w3.org/2000/svg" width="1024" height="1024" viewBox="0 0 1024 1024">
  <defs>
    <linearGradient id="bg" x1="15%" y1="10%" x2="85%" y2="90%">
      <stop offset="0%" stop-color="#0ea5e9"/>
      <stop offset="50%" stop-color="#4f46e5"/>
      <stop offset="100%" stop-color="#7c3aed"/>
    </linearGradient>
    <linearGradient id="drop" x1="50%" y1="0%" x2="50%" y2="100%">
      <stop offset="0%" stop-color="#ffffff"/>
      <stop offset="100%" stop-color="#dbeafe"/>
    </linearGradient>
  </defs>
  <rect x="100" y="100" width="824" height="824" rx="185" fill="url(#bg)"/>
  <path d="M512 286 C556 370 632 442 632 510 A120 120 0 1 1 392 510 C392 442 468 370 512 286 Z" fill="url(#drop)"/>
  <circle cx="470" cy="502" r="32" fill="#ffffff" opacity="0.5"/>
  <path d="M288 700 q56 -46 112 0 t112 0 t112 0 t112 0" fill="none" stroke="#ffffff" stroke-width="34" stroke-linecap="round" opacity="0.95"/>
  <path d="M288 766 q56 46 112 0 t112 0 t112 0 t112 0" fill="none" stroke="#bfdbfe" stroke-width="26" stroke-linecap="round" opacity="0.72"/>
</svg>
